<?xml version="1.0" encoding="utf-8"?>
<!-- Generator: Adobe Illustrator 15.1.0, SVG Export Plug-In . SVG Version: 6.00 Build 0)  -->
<!DOCTYPE svg PUBLIC "-//W3C//DTD SVG 1.1//EN" "http://www.w3.org/Graphics/SVG/1.1/DTD/svg11.dtd">
<svg version="1.1" id="Capa_1" xmlns="http://www.w3.org/2000/svg" xmlns:xlink="http://www.w3.org/1999/xlink" x="0px" y="0px"
	 width="612px" height="612px" viewBox="0 0 612 612" enable-background="new 0 0 612 612" xml:space="preserve">
<g>
	<g>
		<path d="M226.764,375.35c-28.249,0-51.078,22.91-51.078,51.16c0,28.166,22.829,51.078,51.078,51.078s51.078-22.912,51.078-51.078
			C277.841,398.26,255.013,375.35,226.764,375.35z M226.764,452.05c-14.125,0-25.54-11.498-25.54-25.541
			c0-14.123,11.415-25.539,25.54-25.539c14.124,0,25.539,11.416,25.539,25.539C252.302,440.552,240.888,452.05,226.764,452.05z
			 M612,337.561v54.541c0,13.604-11.029,24.635-24.636,24.635h-26.36c-4.763-32.684-32.929-57.813-66.927-57.813
			c-33.914,0-62.082,25.13-66.845,57.813H293.625c-4.763-32.684-32.93-57.813-66.845-57.813c-33.915,0-62.082,25.13-66.844,57.813
			h-33.012c-13.606,0-24.635-11.029-24.635-24.635v-54.541H612L612,337.561z M494.143,375.35c-28.249,0-51.159,22.91-51.159,51.16
			c0,28.166,22.911,51.078,51.159,51.078c28.166,0,51.077-22.912,51.077-51.078C545.22,398.26,522.309,375.35,494.143,375.35z
			 M494.143,452.05c-14.125,0-25.538-11.498-25.538-25.541c0-14.123,11.413-25.539,25.538-25.539
			c14.042,0,25.539,11.416,25.539,25.539C519.682,440.552,508.185,452.05,494.143,452.05z M602.293,282.637l-96.817-95.751
			c-6.158-6.077-14.452-9.526-23.075-9.526h-48.86v-18.313c0-13.631-11.004-24.635-24.635-24.635H126.907
			c-13.55,0-24.635,11.005-24.635,24.635v3.86L2.3,174.429l177.146,23.067L0,215.323l178.814,25.423L0,256.25l102.278,19.29
			l-0.007,48.403h509.712v-17.985C611.983,297.171,608.452,288.796,602.293,282.637z M560.084,285.839h-93.697
			c-2.135,0-3.859-1.724-3.859-3.858v-72.348c0-2.135,1.725-3.859,3.859-3.859h17.82c0.985,0,1.971,0.411,2.71,1.067l75.796,72.348
			C565.257,281.569,563.532,285.839,560.084,285.839z"/>
	</g>
 </g>
</svg>
